<svg xmlns="http://www.w3.org/2000/svg" width="511" height="439" fill="none" viewBox="0 0 511 439"><path fill="#FAF1E7" stroke="#1F2333" stroke-linejoin="round" stroke-width="7" d="M46.364 329.716L255.784 119.377L465.203 329.716L360.492 434.886L255.782 329.717L151.074 434.885L46.364 329.716Z"/><path fill="#1F2333" stroke="#1F2333" stroke-linejoin="round" stroke-width="7" d="M255.784 329.713L151.073 434.896L130.132 382.812L255.784 256.609L255.784 329.713Z"/><path fill="#FAF1E7" stroke="#1F2333" stroke-linejoin="round" stroke-width="7" d="M46.3501 329.692L151.072 434.864L130.131 382.812L4.47876 256.609L46.3501 329.692Z"/><path fill="#FAF1E7" stroke="#1F2333" stroke-linejoin="round" stroke-width="7" d="M255.782 329.713L360.493 434.896L381.434 382.812L255.782 256.609V329.713Z"/><path fill="#1F2333" stroke="#1F2333" stroke-linejoin="round" stroke-width="7" d="M465.216 329.692L360.494 434.864L381.436 382.812L507.087 256.609L465.216 329.692Z"/><path fill="url(#paint0_linear_1417_29132)" stroke="#1F2333" stroke-linejoin="round" stroke-width="7" d="M4.48022 256.6L255.784 4.1936L507.087 256.6L381.434 382.804L255.782 256.601L130.132 382.803L4.48022 256.6Z"/><defs><linearGradient id="paint0_linear_1417_29132" x1="467.196" x2="154.719" y1="70.706" y2="401.436" gradientUnits="userSpaceOnUse"><stop stop-color="#F4837D"/><stop offset="1" stop-color="#FDCEAA"/></linearGradient></defs></svg>